<?xml version="1.0" encoding="utf-8"?>
<!-- Generator: Adobe Illustrator 16.0.0, SVG Export Plug-In . SVG Version: 6.00 Build 0)  -->
<!DOCTYPE svg PUBLIC "-//W3C//DTD SVG 1.1//EN" "http://www.w3.org/Graphics/SVG/1.1/DTD/svg11.dtd">
<svg version="1.1" id="mobile_x5F_standard" xmlns="http://www.w3.org/2000/svg" xmlns:xlink="http://www.w3.org/1999/xlink"
	 x="0px" y="0px" width="120.775px" height="117.793px" viewBox="0 0 120.775 117.793" enable-background="new 0 0 120.775 117.793"
	 xml:space="preserve">
<g>
	<path fill-rule="evenodd" clip-rule="evenodd" fill="#132f3b" d="M60.389,0C27.041,0,0,27.035,0,60.387
		c0,26.682,17.303,49.316,41.297,57.303c3.018,0.559,4.127-1.311,4.127-2.906c0-1.439-0.057-6.197-0.082-11.242
		c-16.801,3.652-20.346-7.125-20.346-7.125c-2.746-6.98-6.705-8.836-6.705-8.836c-5.479-3.748,0.414-3.672,0.414-3.672
		c6.062,0.426,9.256,6.225,9.256,6.225c5.387,9.23,14.127,6.562,17.574,5.02c0.541-3.902,2.105-6.568,3.834-8.076
		c-13.414-1.525-27.514-6.705-27.514-29.844c0-6.592,2.359-11.979,6.223-16.209c-0.627-1.521-2.695-7.662,0.584-15.98
		c0,0,5.072-1.623,16.611,6.19c4.816-1.339,9.982-2.009,15.115-2.032c5.131,0.023,10.301,0.693,15.127,2.032
		c11.527-7.813,16.59-6.19,16.59-6.19c3.287,8.318,1.221,14.459,0.594,15.98c3.871,4.229,6.215,9.617,6.215,16.209
		c0,23.195-14.127,28.301-27.574,29.797c2.166,1.873,4.096,5.549,4.096,11.182c0,8.08-0.07,14.584-0.07,16.572
		c0,1.607,1.088,3.49,4.148,2.898c23.98-7.994,41.262-30.623,41.262-57.295C120.775,27.035,93.738,0,60.389,0z"/>
	<path fill="#132f3b" d="M22.873,86.703c-0.133,0.301-0.605,0.391-1.035,0.184c-0.439-0.197-0.684-0.605-0.543-0.906
		c0.131-0.309,0.604-0.395,1.041-0.189C22.773,85.988,23.023,86.402,22.873,86.703L22.873,86.703z M22.129,86.152"/>
	<path fill="#132f3b" d="M25.318,89.432c-0.287,0.266-0.852,0.143-1.232-0.279c-0.396-0.422-0.469-0.984-0.178-1.256
		c0.297-0.266,0.844-0.141,1.238,0.279C25.543,88.602,25.619,89.16,25.318,89.432L25.318,89.432z M24.742,88.812"/>
	<path fill="#132f3b" d="M27.699,92.908c-0.369,0.258-0.975,0.018-1.35-0.52c-0.369-0.537-0.369-1.182,0.01-1.439
		c0.373-0.258,0.971-0.025,1.35,0.506C28.078,92.002,28.078,92.646,27.699,92.908L27.699,92.908z M27.699,92.908"/>
	<path fill="#132f3b" d="M30.961,96.27c-0.33,0.365-1.035,0.266-1.551-0.232c-0.529-0.486-0.676-1.178-0.344-1.543
		c0.336-0.365,1.045-0.262,1.564,0.232C31.154,95.213,31.314,95.908,30.961,96.27L30.961,96.27z M30.961,96.27"/>
	<path fill="#132f3b" d="M35.461,98.221c-0.146,0.473-0.824,0.688-1.508,0.486c-0.684-0.207-1.131-0.762-0.992-1.238
		c0.141-0.477,0.824-0.701,1.512-0.486C35.156,97.189,35.604,97.738,35.461,98.221L35.461,98.221z M35.461,98.221"/>
	<path fill="#132f3b" d="M40.404,98.582c0.016,0.498-0.564,0.91-1.281,0.92c-0.723,0.016-1.307-0.387-1.314-0.877
		c0-0.504,0.566-0.912,1.289-0.924C39.814,97.688,40.404,98.088,40.404,98.582L40.404,98.582z M40.404,98.582"/>
	<path fill="#132f3b" d="M45.002,97.799c0.086,0.486-0.412,0.984-1.125,1.117c-0.701,0.129-1.35-0.172-1.439-0.652
		c-0.088-0.498,0.42-0.998,1.121-1.127C44.271,97.014,44.912,97.305,45.002,97.799L45.002,97.799z M45.002,97.799"/>
</g>
</svg>
