<svg width="532" height="600"><g class="sankeyG"></g><g><path class="link" d="M10,519.4117647058823C266,519.4117647058823 266,529.0196078431371 522,529.0196078431371" id="link3" style="stroke-width: 2; stroke-dasharray: 2, 2;"></path><path class="link" d="M10,495.8823529411764C266,495.8823529411764 266,479.80392156862735 522,479.80392156862735" id="link3" style="stroke-width: 2; stroke-dasharray: 2, 2;"></path><path class="link" d="M10,550.9803921568626C266,550.9803921568626 266,355.4901960784313 522,355.4901960784313" id="link2" style="stroke-width: 2; stroke-dasharray: 2, 2;"></path><path class="link" d="M10,570.5882352941176C266,570.5882352941176 266,560.5882352941176 522,560.5882352941176" id="link2" style="stroke-width: 2; stroke-dasharray: 2, 2;"></path><path class="link" d="M10,590.1960784313725C266,590.1960784313725 266,590.1960784313725 522,590.1960784313725" id="link2" style="stroke-width: 2; stroke-dasharray: 2, 2;"></path><path class="link" d="M10,474.313725490196C266,474.313725490196 266,298.43137254901956 522,298.43137254901956" id="link3" style="stroke-width: 2; stroke-dasharray: 2, 2;"></path><path class="link" d="M10,352.54901960784304C266,352.54901960784304 266,280.7843137254901 522,280.7843137254901" id="link1" style="stroke-width: 2; stroke-dasharray: 2, 2;"></path><path class="link" d="M10,415.2941176470587C266,415.2941176470587 266,434.50980392156856 522,434.50980392156856" id="link1" style="stroke-width: 2; stroke-dasharray: 2, 2;"></path><path class="link" d="M10,399.6078431372548C266,399.6078431372548 266,408.82352941176464 522,408.82352941176464" id="link1" style="stroke-width: 2; stroke-dasharray: 2, 2;"></path><path class="link" d="M10,368.23529411764696C266,368.23529411764696 266,337.8431372549019 522,337.8431372549019" id="link1" style="stroke-width: 2; stroke-dasharray: 2, 2;"></path><path class="link" d="M10,430.98039215686265C266,430.98039215686265 266,460.1960784313724 522,460.1960784313724" id="link1" style="stroke-width: 2; stroke-dasharray: 2, 2;"></path><path class="link" d="M10,383.9215686274509C266,383.9215686274509 266,383.1372549019607 522,383.1372549019607" id="link1" style="stroke-width: 2; stroke-dasharray: 2, 2;"></path><path class="link" d="M10,446.6666666666666C266,446.6666666666666 266,509.41176470588226 522,509.41176470588226" id="link1" style="stroke-width: 2; stroke-dasharray: 2, 2;"></path><path class="link" d="M10,87.68907563025218C266,87.68907563025218 266,27.647058823529484 522,27.647058823529484" id="link0" style="stroke-width: 2; stroke-dasharray: 2, 2;"></path><path class="link" d="M10,75.92436974789923C266,75.92436974789923 266,5.882352941176541 522,5.882352941176541" id="link0" style="stroke-width: 2; stroke-dasharray: 2, 2;"></path><path class="link" d="M10,99.45378151260512C266,99.45378151260512 266,49.41176470588241 522,49.41176470588241" id="link0" style="stroke-width: 2; stroke-dasharray: 2, 2;"></path><path class="link" d="M10,111.21848739495806C266,111.21848739495806 266,71.17647058823533 522,71.17647058823533" id="link0" style="stroke-width: 2; stroke-dasharray: 2, 2;"></path><path class="link" d="M10,122.98319327731099C266,122.98319327731099 266,92.94117647058826 522,92.94117647058826" id="link0" style="stroke-width: 2; stroke-dasharray: 2, 2;"></path><path class="link" d="M10,134.74789915966394C266,134.74789915966394 266,114.70588235294119 522,114.70588235294119" id="link0" style="stroke-width: 2; stroke-dasharray: 2, 2;"></path><path class="link" d="M10,146.51260504201687C266,146.51260504201687 266,136.47058823529412 522,136.47058823529412" id="link0" style="stroke-width: 2; stroke-dasharray: 2, 2;"></path><path class="link" d="M10,158.27731092436983C266,158.27731092436983 266,158.23529411764707 522,158.23529411764707" id="link0" style="stroke-width: 2; stroke-dasharray: 2, 2;"></path><path class="link" d="M10,170.04201680672276C266,170.04201680672276 266,180 522,180" id="link0" style="stroke-width: 2; stroke-dasharray: 2, 2;"></path><path class="link" d="M10,228.86554621848745C266,228.86554621848745 266,324.1176470588235 522,324.1176470588235" id="link0" style="stroke-width: 2; stroke-dasharray: 2, 2;"></path><path class="link" d="M10,217.10084033613452C266,217.10084033613452 266,267.0588235294117 522,267.0588235294117" id="link0" style="stroke-width: 2; stroke-dasharray: 2, 2;"></path><path class="link" d="M10,181.80672268907568C266,181.80672268907568 266,201.76470588235293 522,201.76470588235293" id="link0" style="stroke-width: 2; stroke-dasharray: 2, 2;"></path><path class="link" d="M10,193.57142857142864C266,193.57142857142864 266,223.52941176470586 522,223.52941176470586" id="link0" style="stroke-width: 2; stroke-dasharray: 2, 2;"></path><path class="link" d="M10,205.3361344537816C266,205.3361344537816 266,245.29411764705878 522,245.29411764705878" id="link0" style="stroke-width: 2; stroke-dasharray: 2, 2;"></path></g><g><g class="node" transform="translate(0,70.04201680672277)"><rect height="164.70588235294116" width="10" rx="5" ry="5" id="id0"></rect><text x="16" y="82.35294117647058" dy=".01em" text-anchor="start" id="textId0">Web Development</text></g><g class="node" transform="translate(0,344.7058823529411)"><rect height="109.80392156862744" width="10" rx="5" ry="5" id="id1"></rect><text x="16" y="54.90196078431372" dy=".01em" text-anchor="start" id="textId1">Geospatial</text></g><g class="node" transform="translate(0,541.1764705882352)"><rect height="58.8235294117647" width="10" rx="5" ry="5" id="id2"></rect><text x="16" y="29.41176470588235" dy=".01em" text-anchor="start" id="textId2">Design</text></g><g class="node" transform="translate(0,464.50980392156856)"><rect height="66.66666666666666" width="10" rx="5" ry="5" id="id3"></rect><text x="16" y="33.33333333333333" dy=".01em" text-anchor="start" id="textId3">Data Management</text></g><g class="node" transform="translate(522,7.105427357601002e-14)"><rect height="11.76470588235294" width="10" rx="5" ry="5" id="id4"></rect><text x="-20" y="7.8431372549019605" dy=".01em" text-anchor="end" id="textId4">AngularJS</text></g><g class="node" transform="translate(522,21.764705882353013)"><rect height="11.76470588235294" width="10" rx="5" ry="5" id="id5"></rect><text x="-20" y="7.8431372549019605" dy=".01em" text-anchor="end" id="textId5">D3.js</text></g><g class="node" transform="translate(522,43.52941176470594)"><rect height="11.76470588235294" width="10" rx="5" ry="5" id="id6"></rect><text x="-20" y="7.8431372549019605" dy=".01em" text-anchor="end" id="textId6">Leaflet</text></g><g class="node" transform="translate(522,65.29411764705887)"><rect height="11.76470588235294" width="10" rx="5" ry="5" id="id7"></rect><text x="-20" y="7.8431372549019605" dy=".01em" text-anchor="end" id="textId7">CSS3</text></g><g class="node" transform="translate(522,87.0588235294118)"><rect height="11.76470588235294" width="10" rx="5" ry="5" id="id8"></rect><text x="-20" y="7.8431372549019605" dy=".01em" text-anchor="end" id="textId8">HTML5</text></g><g class="node" transform="translate(522,108.82352941176472)"><rect height="11.76470588235294" width="10" rx="5" ry="5" id="id9"></rect><text x="-20" y="7.8431372549019605" dy=".01em" text-anchor="end" id="textId9">Javascript</text></g><g class="node" transform="translate(522,130.58823529411765)"><rect height="11.76470588235294" width="10" rx="5" ry="5" id="id10"></rect><text x="-20" y="7.8431372549019605" dy=".01em" text-anchor="end" id="textId10">jQuery</text></g><g class="node" transform="translate(522,152.3529411764706)"><rect height="11.76470588235294" width="10" rx="5" ry="5" id="id11"></rect><text x="-20" y="7.8431372549019605" dy=".01em" text-anchor="end" id="textId11">PHP</text></g><g class="node" transform="translate(522,174.11764705882354)"><rect height="11.76470588235294" width="10" rx="5" ry="5" id="id12"></rect><text x="-20" y="7.8431372549019605" dy=".01em" text-anchor="end" id="textId12">Sass</text></g><g class="node" transform="translate(522,375.2941176470588)"><rect height="15.686274509803921" width="10" rx="5" ry="5" id="id13"></rect><text x="-20" y="10.457516339869281" dy=".01em" text-anchor="end" id="textId13">GRASS GIS</text></g><g class="node" transform="translate(522,400.9803921568627)"><rect height="15.686274509803921" width="10" rx="5" ry="5" id="id14"></rect><text x="-20" y="10.457516339869281" dy=".01em" text-anchor="end" id="textId14">PCI Geomatica</text></g><g class="node" transform="translate(522,426.66666666666663)"><rect height="15.686274509803921" width="10" rx="5" ry="5" id="id15"></rect><text x="-20" y="10.457516339869281" dy=".01em" text-anchor="end" id="textId15">QGIS</text></g><g class="node" transform="translate(522,318.235294117647)"><rect height="47.05882352941176" width="10" rx="5" ry="5" id="id16"></rect><text x="-20" y="31.372549019607842" dy=".01em" text-anchor="end" id="textId16">CartoCSS</text></g><g class="node" transform="translate(522,452.3529411764705)"><rect height="39.2156862745098" width="10" rx="5" ry="5" id="id17"></rect><text x="-20" y="26.1437908496732" dy=".01em" text-anchor="end" id="textId17">PostGIS</text></g><g class="node" transform="translate(522,501.56862745098033)"><rect height="39.2156862745098" width="10" rx="5" ry="5" id="id18"></rect><text x="-20" y="26.1437908496732" dy=".01em" text-anchor="end" id="textId18">PostgreSQL</text></g><g class="node" transform="translate(522,550.7843137254902)"><rect height="19.6078431372549" width="10" rx="5" ry="5" id="id19"></rect><text x="-20" y="13.0718954248366" dy=".01em" text-anchor="end" id="textId19">Adobe Illustrator</text></g><g class="node" transform="translate(522,580.3921568627451)"><rect height="19.6078431372549" width="10" rx="5" ry="5" id="id20"></rect><text x="-20" y="13.0718954248366" dy=".01em" text-anchor="end" id="textId20">Adobe Indesign</text></g><g class="node" transform="translate(522,261.17647058823525)"><rect height="47.05882352941176" width="10" rx="5" ry="5" id="id21"></rect><text x="-20" y="31.372549019607842" dy=".01em" text-anchor="end" id="textId21">OpenLayers</text></g><g class="node" transform="translate(522,195.88235294117646)"><rect height="11.76470588235294" width="10" rx="5" ry="5" id="id22"></rect><text x="-20" y="7.8431372549019605" dy=".01em" text-anchor="end" id="textId22">Node.js</text></g><g class="node" transform="translate(522,217.6470588235294)"><rect height="11.76470588235294" width="10" rx="5" ry="5" id="id23"></rect><text x="-20" y="7.8431372549019605" dy=".01em" text-anchor="end" id="textId23">gulp</text></g><g class="node" transform="translate(522,239.41176470588232)"><rect height="11.76470588235294" width="10" rx="5" ry="5" id="id24"></rect><text x="-20" y="7.8431372549019605" dy=".01em" text-anchor="end" id="textId24">Mocha</text></g></g></svg>
