<svg width="500" height="600"><g class="graphLinks"><path id="link0" class="link" d="M10,62.60204081632651C250,62.60204081632651,250,6.397959183673285,490,6.397959183673285" stroke-width="2" stroke-dasharray="2,2"></path><path id="link0" class="link" d="M10,75.39795918367344C250,75.39795918367344,250,29.193877551020243,490,29.193877551020243" stroke-width="2" stroke-dasharray="2,2"></path><path id="link0" class="link" d="M10,88.19387755102038C250,88.19387755102038,250,51.98979591836727,490,51.98979591836727" stroke-width="2" stroke-dasharray="2,2"></path><path id="link0" class="link" d="M10,100.98979591836732C250,100.98979591836732,250,74.78571428571422,490,74.78571428571422" stroke-width="2" stroke-dasharray="2,2"></path><path id="link0" class="link" d="M10,113.78571428571426C250,113.78571428571426,250,97.58163265306115,490,97.58163265306115" stroke-width="2" stroke-dasharray="2,2"></path><path id="link0" class="link" d="M10,126.5816326530612C250,126.5816326530612,250,120.3775510204081,490,120.3775510204081" stroke-width="2" stroke-dasharray="2,2"></path><path id="link0" class="link" d="M10,139.37755102040813C250,139.37755102040813,250,143.1734693877551,490,143.1734693877551" stroke-width="2" stroke-dasharray="2,2"></path><path id="link0" class="link" d="M10,152.17346938775506C250,152.17346938775506,250,165.9693877551019,490,165.9693877551019" stroke-width="2" stroke-dasharray="2,2"></path><path id="link0" class="link" d="M10,190.56122448979585C250,190.56122448979585,250,272.7448979591837,490,272.7448979591837" stroke-width="2" stroke-dasharray="2,2"></path><path id="link0" class="link" d="M10,177.76530612244892C250,177.76530612244892,250,211.56122448979582,490,211.56122448979582" stroke-width="2" stroke-dasharray="2,2"></path><path id="link0" class="link" d="M10,164.969387755102C250,164.969387755102,250,188.76530612244883,490,188.76530612244883" stroke-width="2" stroke-dasharray="2,2"></path><path id="link1" class="link" d="M10,326.3469387755108C250,326.3469387755108,250,319.00000000000006,490,319.00000000000006" stroke-width="2" stroke-dasharray="2,2"></path><path id="link1" class="link" d="M10,343.4081632653067C250,343.4081632653067,250,346.06122448979596,490,346.06122448979596" stroke-width="2" stroke-dasharray="2,2"></path><path id="link1" class="link" d="M10,360.4693877551026C250,360.4693877551026,250,373.12244897959187,490,373.12244897959187" stroke-width="2" stroke-dasharray="2,2"></path><path id="link1" class="link" d="M10,309.2857142857149C250,309.2857142857149,250,226.48979591836724,490,226.48979591836724" stroke-width="2" stroke-dasharray="2,2"></path><path id="link1" class="link" d="M10,394.5918367346944C250,394.5918367346944,250,448.57142857142844,490,448.57142857142844" stroke-width="2" stroke-dasharray="2,2"></path><path id="link1" class="link" d="M10,411.65306122449033C250,411.65306122449033,250,501.2244897959183,490,501.2244897959183" stroke-width="2" stroke-dasharray="2,2"></path><path id="link1" class="link" d="M10,377.5306122448985C250,377.5306122448985,250,400.18367346938777,490,400.18367346938777" stroke-width="2" stroke-dasharray="2,2"></path><path id="link2" class="link" d="M10,440.84693877551086C250,440.84693877551086,250,245.68367346938763,490,245.68367346938763" stroke-width="2" stroke-dasharray="2,2"></path><path id="link2" class="link" d="M10,483.5000000000006C250,483.5000000000006,250,556.0102040816327,490,556.0102040816327" stroke-width="2" stroke-dasharray="2,2"></path><path id="link2" class="link" d="M10,504.8265306122455C250,504.8265306122455,250,587.3367346938775,490,587.3367346938775" stroke-width="2" stroke-dasharray="2,2"></path><path id="link2" class="link" d="M10,462.17346938775574C250,462.17346938775574,250,289.8061224489796,490,289.8061224489796" stroke-width="2" stroke-dasharray="2,2"></path><path id="link3" class="link" d="M10,536.1530612244899C250,536.1530612244899,250,419.3775510204082,490,419.3775510204082" stroke-width="2" stroke-dasharray="2,2"></path><path id="link3" class="link" d="M10,559.6122448979594C250,559.6122448979594,250,469.8979591836733,490,469.8979591836733" stroke-width="2" stroke-dasharray="2,2"></path><path id="link3" class="link" d="M10,585.2040816326532C250,585.2040816326532,250,522.5510204081633,490,522.5510204081633" stroke-width="2" stroke-dasharray="2,2"></path></g><g class="graphNodes"><g class="node" transform="translate(0, 58.204081632653036)"><rect id="id0" height="140.7551020408163" width="10" rx="5" ry="5"></rect><text id="textId33" dx="16" dy="70.37755102040815" text-anchor="start">Web Development</text></g><g class="node" transform="translate(0, 302.75510204081695)"><rect id="id1" height="119.42857142857144" width="10" rx="5" ry="5"></rect><text id="textId28" dx="16" dy="59.71428571428572" text-anchor="start">Geospatial</text></g><g class="node" transform="translate(0, 432.1836734693884)"><rect id="id2" height="85.30612244897907" width="10" rx="5" ry="5"></rect><text id="textId20" dx="16" dy="42.653061224489534" text-anchor="start">Design</text></g><g class="node" transform="translate(0, 527.4897959183675)"><rect id="id3" height="72.51020408163254" width="10" rx="5" ry="5"></rect><text id="textId17" dx="16" dy="36.25510204081627" text-anchor="start">Data Management</text></g><g class="node" transform="translate(490, 1.9999999999998153)"><rect id="id4" height="12.795918367346957" width="10" rx="5" ry="5"></rect><text id="textId3" dx="-20" dy="6.397959183673478" text-anchor="end">AngularJS</text></g><g class="node" transform="translate(490, 24.795918367346772)"><rect id="id5" height="12.795918367347028" width="10" rx="5" ry="5"></rect><text id="textId3" dx="-20" dy="6.397959183673514" text-anchor="end">D3.js</text></g><g class="node" transform="translate(490, 47.5918367346938)"><rect id="id6" height="12.795918367346957" width="10" rx="5" ry="5"></rect><text id="textId3" dx="-20" dy="6.397959183673478" text-anchor="end">Leaflet</text></g><g class="node" transform="translate(490, 70.38775510204076)"><rect id="id7" height="12.795918367346928" width="10" rx="5" ry="5"></rect><text id="textId3" dx="-20" dy="6.397959183673464" text-anchor="end">React</text></g><g class="node" transform="translate(490, 93.18367346938768)"><rect id="id8" height="12.795918367346957" width="10" rx="5" ry="5"></rect><text id="textId3" dx="-20" dy="6.397959183673478" text-anchor="end">Node.js</text></g><g class="node" transform="translate(490, 115.97959183673464)"><rect id="id9" height="12.795918367346985" width="10" rx="5" ry="5"></rect><text id="textId3" dx="-20" dy="6.397959183673493" text-anchor="end">Javascript</text></g><g class="node" transform="translate(490, 138.77551020408163)"><rect id="id10" height="12.795918367346815" width="10" rx="5" ry="5"></rect><text id="textId3" dx="-20" dy="6.397959183673407" text-anchor="end">Python</text></g><g class="node" transform="translate(490, 161.57142857142844)"><rect id="id11" height="12.795918367346928" width="10" rx="5" ry="5"></rect><text id="textId3" dx="-20" dy="6.397959183673464" text-anchor="end">PHP</text></g><g class="node" transform="translate(490, 268.3469387755102)"><rect id="id12" height="34.12244897959192" width="10" rx="5" ry="5"></rect><text id="textId8" dx="-20" dy="17.06122448979596" text-anchor="end">CSS3, Sass</text></g><g class="node" transform="translate(490, 312.4693877551021)"><rect id="id13" height="17.061224489795904" width="10" rx="5" ry="5"></rect><text id="textId4" dx="-20" dy="8.530612244897952" text-anchor="end">GRASS GIS</text></g><g class="node" transform="translate(490, 339.530612244898)"><rect id="id14" height="17.061224489795904" width="10" rx="5" ry="5"></rect><text id="textId4" dx="-20" dy="8.530612244897952" text-anchor="end">PCI Geomatica</text></g><g class="node" transform="translate(490, 366.5918367346939)"><rect id="id15" height="17.061224489795904" width="10" rx="5" ry="5"></rect><text id="textId4" dx="-20" dy="8.530612244897952" text-anchor="end">QGIS</text></g><g class="node" transform="translate(490, 207.16326530612236)"><rect id="id16" height="51.18367346938783" width="10" rx="5" ry="5"></rect><text id="textId12" dx="-20" dy="25.591836734693914" text-anchor="end">CartoCSS</text></g><g class="node" transform="translate(490, 442.0408163265305)"><rect id="id17" height="42.653061224489875" width="10" rx="5" ry="5"></rect><text id="textId10" dx="-20" dy="21.326530612244937" text-anchor="end">PostGIS</text></g><g class="node" transform="translate(490, 494.69387755102036)"><rect id="id18" height="42.653061224489875" width="10" rx="5" ry="5"></rect><text id="textId10" dx="-20" dy="21.326530612244937" text-anchor="end">PostgreSQL</text></g><g class="node" transform="translate(490, 547.3469387755102)"><rect id="id19" height="21.326530612244824" width="10" rx="5" ry="5"></rect><text id="textId5" dx="-20" dy="10.663265306122412" text-anchor="end">Adobe Illustrator</text></g><g class="node" transform="translate(490, 578.6734693877551)"><rect id="id20" height="21.326530612244937" width="10" rx="5" ry="5"></rect><text id="textId5" dx="-20" dy="10.663265306122469" text-anchor="end">Adobe Indesign</text></g><g class="node" transform="translate(490, 393.6530612244898)"><rect id="id21" height="38.38775510204067" width="10" rx="5" ry="5"></rect><text id="textId9" dx="-20" dy="19.193877551020336" text-anchor="end">OpenLayers</text></g><g class="node" transform="translate(490, 184.36734693877537)"><rect id="id22" height="12.795918367346985" width="10" rx="5" ry="5"></rect><text id="textId3" dx="-20" dy="6.397959183673493" text-anchor="end">Webpack, Gulp</text></g></g></svg>
